<svg xmlns="http://www.w3.org/2000/svg" viewBox="0 0 400 400">
  <circle cx="254" cy="254" r="254" fill="#ffd05b"/>
  <path d="M362.8 427.2H145.2c-11.2 0-20.4-9.2-20.4-20.4V117.6c0-11.2 9.2-20.4 20.4-20.4h217.2c11.2 0 20.4 9.2 20.4 20.4v289.6c.4 11.2-8.8 20-20 20z" fill="#fff"/>
  <path d="M323.6 82.4H280c0-14-11.2-25.6-25.6-25.6-14 0-25.6 11.2-25.6 25.6h-44.4c-6 0-11.2 4.8-11.2 11.2v29.2h161.2V93.6c.4-6-4.8-11.2-10.8-11.2zm-69.2 12.8c-7.2 0-12.8-5.6-12.8-12.8 0-7.2 5.6-12.8 12.8-12.8 7.2 0 12.8 5.6 12.8 12.8 0 7.2-5.6 12.8-12.8 12.8z" fill="#ff7058"/>
  <g fill="#e6e9ee">
    <path d="M159.2 225.6h190v9.6h-190zM159.2 256.8h190v9.6h-190zM159.2 287.6h190v9.6h-190zM159.2 318.4h190v9.6h-190zM159.2 349.2h190v9.6h-190zM159.2 380.4h77.6v9.6h-77.6z"/>
  </g>
  <g fill="#84dbff">
    <path d="M180.4 196.4h-13.6v-35.2c0-2-1.6-4-4-4s-4 1.6-4 4V200c0 2 1.6 4 4 4h17.6c2 0 4-1.6 4-4 0-2-2-3.6-4-3.6zM220 157.2c-12.4 0-22.4 10.4-22.4 23.2s10 23.2 22.4 23.2 22.4-10.4 22.4-23.2c0-12.4-10-23.2-22.4-23.2zm0 39.2c-8 0-14.4-6.8-14.4-15.6s6.4-15.6 14.4-15.6 14.8 6.8 14.8 15.6c0 8.4-6.8 15.6-14.8 15.6zM345.2 157.2a4 4 0 00-4 4V188l-20-28.8c-.8-1.2-2-1.6-3.2-1.6a4 4 0 00-4 4v38.8a4 4 0 008 0v-26.8l20 28.8c.8 1.2 2 1.6 3.2 1.6 2 0 4-2 4-4v-38.8c-.4-2-2-4-4-4zM279.6 160c-.4-1.6-2-2.4-3.6-2.4s-3.2 1.2-3.6 2.4l-14.8 38.8c-.8 2 .4 4.4 2.4 5.2.4 0 3.6 1.2 5.2-2.4l3.6-9.2h15.6l3.6 9.2c.8 2 3.2 3.2 5.2 2.4s3.2-3.2 2.4-5.2l-16-38.8zm-8.4 24.4l4.8-12 4.8 12h-9.6z"/>
  </g>
</svg>
