<?xml version="1.0" encoding="utf-8"?>
<!-- Generator: Adobe Illustrator 24.0.0, SVG Export Plug-In . SVG Version: 6.00 Build 0)  -->
<svg version="1.1" id="Layer_1" xmlns="http://www.w3.org/2000/svg" xmlns:xlink="http://www.w3.org/1999/xlink" x="0px" y="0px"
	 viewBox="0 0 2000 2000" style="enable-background:new 0 0 2000 2000;" xml:space="preserve">
<style type="text/css">
	.st0{fill-rule:evenodd;clip-rule:evenodd;fill:#4054A8;}
</style>
<path class="st0" d="M1547.3,761.2c0,22-17.8,39.8-39.8,39.8c-22,0-39.8-17.8-39.8-39.8s17.8-39.8,39.8-39.8c0,0,0,0,0,0
	C1529.5,721.4,1547.2,739.2,1547.3,761.2 M1510,676.6c-48.1,0-87.1,38.9-87.1,87c0,48.1,38.9,87.1,87,87.1c48.1,0,87.1-38.9,87.1-87
	c0,0,0,0,0-0.1C1596.9,715.7,1558,676.7,1510,676.6 M1397.9,1439.4c18.7-17.1,20-46.2,2.9-64.9c-17-18.6-45.8-20-64.6-3.2
	c-91.4,83-210.5,128.9-334,128.8c-274.3,0-497.5-223.2-497.5-497.7s223.2-497.7,497.5-497.7c123.5-0.1,242.6,45.8,334,128.8
	c18.6,17.3,47.6,16.2,64.9-2.3c17.3-18.6,16.2-47.6-2.3-64.9c-0.3-0.3-0.6-0.6-0.9-0.8c-108.3-98.3-249.4-152.8-395.6-152.6
	c-324.9,0-589.3,264.5-589.3,589.6S677.3,1592,1002.2,1592C1148.5,1592.1,1289.6,1537.7,1397.9,1439.4 M1002.5,94.5
	c-500.7,0-908,407.3-908,908s407.3,908,908,908s908-407.3,908-908S1503.2,94.5,1002.5,94.5 M1000,2000C448.6,2000,0,1551.4,0,1000
	S448.6,0,1000,0s1000,448.6,1000,1000S1551.4,2000,1000,2000"/>
</svg>
