<svg width="500" height="500" viewBox="0 0 500 500" fill="none" xmlns="http://www.w3.org/2000/svg">
<path d="M250 500C388.071 500 500 388.071 500 250C500 111.929 388.071 0 250 0C111.929 0 0 111.929 0 250C0 388.071 111.929 500 250 500Z" fill="#103F68"/>
<path d="M249.687 78.4063L398.438 164.078V335.953L249.859 421.875L248.656 421.578L101.562 335.953V164.078L248.656 78.4063H249.687V78.4063ZM249.203 96.1876L117.188 173.063V326.969L249.187 403.828L265.312 394.5L382.812 326.922V173.094L265.312 105.125L249.203 96.1876V96.1876ZM137.641 261.969L176.719 232.75L211.266 254.813V294.5L237.406 319.688L237.391 331.5L212.203 355.094H190.938L137.656 261.969H137.641ZM261.125 331.531L261.078 319.656L287.125 294.5V254.813L321.297 232.469L360.297 261.984L307.281 354.828H286.281L261.125 331.531ZM224.094 254.813L211.375 221.516H286.969L274.5 254.813L278.188 292.031L249.016 292.094L220.188 292.141L224.094 254.813V254.813ZM249.016 212.391L177.172 212.359L190.531 152.672H307.156L321.219 212.438L249.016 212.391Z" fill="white"/>
</svg>
