<svg xmlns="http://www.w3.org/2000/svg" width="2000" height="2000" viewBox="0 0 2000 2000"><path d="M1000,0C447.81,0,0,447.59,0,1000c0,552.19,447.81,1000,1000,1000s1000-447.81,1000-1000C2000,447.59,1552.41,0,1000,0m294.68,1435.09q-122.25,93.3-311.21,93.28-184.75,0-292.32-91.15t-105.53-229q0-109.59,52.28-166.31t137.58-86q85.53-29.34,185.86-51.83c66.91-16,120.87-34.37,161.61-54.63,41-20.26,61.23-47.84,61.23-83.18,0-35.07-14.58-63.62-44-85.92s-70.9-33.48-124.64-33.48q-82.34,0-131.46,36.49c-32.94,24.3-52.54,58-59.37,101.31H619.8c12.24-98.74,52.54-175,121.58-229s159-81,270.19-81q180.9,0,281.28,88.1c66.86,58.62,100.34,132.17,100.34,219.78q0,95.45-55.11,151-55.47,55.86-138.78,86.23a1251.32,1251.32,0,0,1-167.73,48.55Q923.09,1090.61,862,1118c-41,18.13-61.28,53-61.28,104.32q0,52.68,44.07,93.33c29.44,26.83,76.31,40.53,140.64,40.53,65.71,0,118.47-16.49,158.78-49.7q60-49.54,76.3-118.52h214.87q-18,154-140.64,247.1" fill="#d81d3c"/></svg>