<svg width="300" height="300" viewBox="0 0 300 300" fill="none" xmlns="http://www.w3.org/2000/svg">
<g style="mix-blend-mode:darken">
<path d="M139.833 0.233291C136.666 0.499958 127.966 1.56662 126.333 1.83329C125.866 1.93329 124.966 2.06662 124.333 2.16662C118.799 3.03329 110.066 5.19996 103.333 7.39996C85.8327 13.1 70.0661 21.7 55.6661 33.3C50.7661 37.2666 49.8661 38.1 43.6327 44.3C26.6661 61.2666 14.9327 80.5 7.23274 103.833C4.33274 112.567 2.33274 121.967 0.932742 133.333C-0.0339244 141.167 -0.133924 157.2 0.766075 165C4.03274 193.867 13.9994 218.9 30.9661 241C50.9661 267.067 79.2327 286 110.666 294.467C123.799 298 135.633 299.5 149.999 299.467C162.433 299.467 171.799 298.467 182.666 296C206.633 290.567 227.833 280.033 246.666 264.233C250.599 260.933 260.999 250.5 264.366 246.5C281.833 225.7 293.533 200.4 297.633 174.5C299.299 164.067 299.499 161.3 299.499 149.833C299.466 139.467 299.266 135.867 298.166 128.667C298.099 128.2 297.933 127.067 297.833 126.167C297.433 123.167 295.666 114.933 294.466 110.5C289.866 93.3 281.533 75.9666 270.733 61.1666C269.533 59.5 268.466 58.1 268.333 58C268.233 57.9 267.633 57.1666 266.999 56.3333C263.033 51.1333 253.766 41.5666 247.499 36.1C234.033 24.4 216.199 14.1666 198.999 8.26663C186.299 3.93329 177.133 2.03329 160.833 0.366625C157.966 0.0666246 142.666 -0.0333754 139.833 0.233291ZM160.166 24C177.633 25.6 192.299 29.7666 207.166 37.3333C234.499 51.2 255.899 74.7 267.333 103.333C268.333 105.833 269.999 110.5 270.499 112.333C270.766 113.167 271.266 114.967 271.666 116.333C273.199 121.633 274.899 130.833 275.499 136.833C279.033 172.5 267.933 206.7 244.133 233.667C237.266 241.467 228.066 249.467 219.499 255.033C214.233 258.5 212.899 259.267 207.166 262.167C187.999 271.9 168.133 276.4 146.799 275.867C143.099 275.767 139.733 275.633 139.299 275.533C138.866 275.433 137.466 275.267 136.199 275.167C126.699 274.367 114.199 271.3 103.533 267.133C98.0994 265 88.4661 260.1 83.2327 256.833C68.3327 247.533 54.5994 234.233 45.1994 220C41.0327 213.667 40.8327 213.367 37.8327 207.567C30.4661 193.333 26.1327 178.733 24.2661 161.667C23.6661 156.033 23.7327 142.567 24.4327 136.433C28.4661 100.833 46.2327 69.7666 74.8327 48.4666C93.1661 34.8 114.199 26.7 137.666 24.2C142.733 23.6333 155.166 23.5333 160.166 24Z" fill="#5B41B7"/>
<path d="M139.833 0.233291C136.666 0.499958 127.966 1.56662 126.333 1.83329C125.866 1.93329 124.966 2.06662 124.333 2.16662C118.799 3.03329 110.066 5.19996 103.333 7.39996C85.8327 13.1 70.0661 21.7 55.6661 33.3C50.7661 37.2666 49.8661 38.1 43.6327 44.3C26.6661 61.2666 14.9327 80.5 7.23274 103.833C4.33274 112.567 2.33274 121.967 0.932742 133.333C-0.0339244 141.167 -0.133924 157.2 0.766075 165C4.03274 193.867 13.9994 218.9 30.9661 241C50.9661 267.067 79.2327 286 110.666 294.467C123.799 298 135.633 299.5 149.999 299.467C162.433 299.467 171.799 298.467 182.666 296C206.633 290.567 227.833 280.033 246.666 264.233C250.599 260.933 260.999 250.5 264.366 246.5C281.833 225.7 293.533 200.4 297.633 174.5C299.299 164.067 299.499 161.3 299.499 149.833C299.466 139.467 299.266 135.867 298.166 128.667C298.099 128.2 297.933 127.067 297.833 126.167C297.433 123.167 295.666 114.933 294.466 110.5C289.866 93.3 281.533 75.9666 270.733 61.1666C269.533 59.5 268.466 58.1 268.333 58C268.233 57.9 267.633 57.1666 266.999 56.3333C263.033 51.1333 253.766 41.5666 247.499 36.1C234.033 24.4 216.199 14.1666 198.999 8.26663C186.299 3.93329 177.133 2.03329 160.833 0.366625C157.966 0.0666246 142.666 -0.0333754 139.833 0.233291ZM160.166 24C177.633 25.6 192.299 29.7666 207.166 37.3333C234.499 51.2 255.899 74.7 267.333 103.333C268.333 105.833 269.999 110.5 270.499 112.333C270.766 113.167 271.266 114.967 271.666 116.333C273.199 121.633 274.899 130.833 275.499 136.833C279.033 172.5 267.933 206.7 244.133 233.667C237.266 241.467 228.066 249.467 219.499 255.033C214.233 258.5 212.899 259.267 207.166 262.167C187.999 271.9 168.133 276.4 146.799 275.867C143.099 275.767 139.733 275.633 139.299 275.533C138.866 275.433 137.466 275.267 136.199 275.167C126.699 274.367 114.199 271.3 103.533 267.133C98.0994 265 88.4661 260.1 83.2327 256.833C68.3327 247.533 54.5994 234.233 45.1994 220C41.0327 213.667 40.8327 213.367 37.8327 207.567C30.4661 193.333 26.1327 178.733 24.2661 161.667C23.6661 156.033 23.7327 142.567 24.4327 136.433C28.4661 100.833 46.2327 69.7666 74.8327 48.4666C93.1661 34.8 114.199 26.7 137.666 24.2C142.733 23.6333 155.166 23.5333 160.166 24Z" fill="url(#paint0_linear)" style="mix-blend-mode:lighten"/>
<path d="M70.4667 101.233C70.5667 101.567 71.7667 105.733 73.1334 110.5C74.5 115.267 76.1 120.633 76.6334 122.467C77.2 124.267 77.5667 125.867 77.4667 126.033C77.3667 126.2 70.5 126.333 61.7 126.333H46.0667L45.8667 127.4C45.2 131.3 44.5334 136.533 44.1334 141.233L43.9 144H63.6H83.3L85.1 149.567C86.1 152.667 86.8667 155.267 86.7667 155.4C86.7 155.567 77.0334 155.667 65.2667 155.667H43.9L44.1334 158.067C44.6334 163.433 44.7334 164.3 45.2 167.667C45.4667 169.6 45.8 171.7 45.9334 172.333L46.2 173.5L69.5 173.6C87.6334 173.667 92.8667 173.767 93.0667 174.1C93.2 174.3 93.6333 175.467 94.0333 176.667C96.4333 183.867 103.8 203.633 105.833 208.233L106.633 210L118.7 209.933L130.767 209.833L132.4 204.833C138 187.633 144.733 165.167 147.833 153.167C148.5 150.6 149.167 148.3 149.333 148.033C149.6 147.533 149.667 147.7 151.667 155C153.3 160.967 155.6 168.833 156.833 172.667C158 176.367 162.433 190.167 166.433 202.567L168.833 210L180.967 209.9L193.1 209.833L195.4 204.167C197.867 198.133 203.2 184 205.4 177.667C206.167 175.567 206.933 173.733 207.133 173.6C207.333 173.467 217.867 173.333 230.533 173.333H253.6L253.767 172.567C254.567 169.267 256.067 156.167 255.7 155.8C255.633 155.733 245.967 155.667 234.267 155.667C222.567 155.667 213 155.567 213 155.4C213 155.267 213.767 152.667 214.733 149.6L216.5 144H236.067C246.833 144 255.7 143.9 255.767 143.733C256.067 143.2 254.7 131.667 253.8 127.233L253.6 126.333H237.967C223.3 126.333 222.333 126.3 222.333 125.733C222.333 125.433 223.067 122.7 223.967 119.667C225.9 113.233 228.9 102.9 229.2 101.567L229.4 100.667H213.433H197.467L196.4 105.233C195.8 107.767 194.5 113.5 193.467 118C192.467 122.5 190.967 129.1 190.133 132.667C186.767 147.3 180.233 171.667 179.667 171.667C179.067 171.667 170.833 140.133 164.733 114.5C163.5 109.333 161.667 101.167 161.667 100.8C161.667 100.733 156.6 100.7 150.433 100.733L139.167 100.833L138.867 102.333C138.467 104.4 130.3 136.733 128.7 142.667C127.967 145.333 126.7 150.033 125.867 153.167C124.067 159.933 120.667 171.767 120.5 171.967C120.333 172.133 120.267 171.967 119.2 168.333C116.467 159 111.933 140.633 107.5 121C106.3 115.6 104.767 108.8 104.1 105.9L102.867 100.667H86.6C71.2334 100.667 70.3 100.7 70.4667 101.233Z" fill="#5B41B7"/>
<path d="M70.4667 101.233C70.5667 101.567 71.7667 105.733 73.1334 110.5C74.5 115.267 76.1 120.633 76.6334 122.467C77.2 124.267 77.5667 125.867 77.4667 126.033C77.3667 126.2 70.5 126.333 61.7 126.333H46.0667L45.8667 127.4C45.2 131.3 44.5334 136.533 44.1334 141.233L43.9 144H63.6H83.3L85.1 149.567C86.1 152.667 86.8667 155.267 86.7667 155.4C86.7 155.567 77.0334 155.667 65.2667 155.667H43.9L44.1334 158.067C44.6334 163.433 44.7334 164.3 45.2 167.667C45.4667 169.6 45.8 171.7 45.9334 172.333L46.2 173.5L69.5 173.6C87.6334 173.667 92.8667 173.767 93.0667 174.1C93.2 174.3 93.6333 175.467 94.0333 176.667C96.4333 183.867 103.8 203.633 105.833 208.233L106.633 210L118.7 209.933L130.767 209.833L132.4 204.833C138 187.633 144.733 165.167 147.833 153.167C148.5 150.6 149.167 148.3 149.333 148.033C149.6 147.533 149.667 147.7 151.667 155C153.3 160.967 155.6 168.833 156.833 172.667C158 176.367 162.433 190.167 166.433 202.567L168.833 210L180.967 209.9L193.1 209.833L195.4 204.167C197.867 198.133 203.2 184 205.4 177.667C206.167 175.567 206.933 173.733 207.133 173.6C207.333 173.467 217.867 173.333 230.533 173.333H253.6L253.767 172.567C254.567 169.267 256.067 156.167 255.7 155.8C255.633 155.733 245.967 155.667 234.267 155.667C222.567 155.667 213 155.567 213 155.4C213 155.267 213.767 152.667 214.733 149.6L216.5 144H236.067C246.833 144 255.7 143.9 255.767 143.733C256.067 143.2 254.7 131.667 253.8 127.233L253.6 126.333H237.967C223.3 126.333 222.333 126.3 222.333 125.733C222.333 125.433 223.067 122.7 223.967 119.667C225.9 113.233 228.9 102.9 229.2 101.567L229.4 100.667H213.433H197.467L196.4 105.233C195.8 107.767 194.5 113.5 193.467 118C192.467 122.5 190.967 129.1 190.133 132.667C186.767 147.3 180.233 171.667 179.667 171.667C179.067 171.667 170.833 140.133 164.733 114.5C163.5 109.333 161.667 101.167 161.667 100.8C161.667 100.733 156.6 100.7 150.433 100.733L139.167 100.833L138.867 102.333C138.467 104.4 130.3 136.733 128.7 142.667C127.967 145.333 126.7 150.033 125.867 153.167C124.067 159.933 120.667 171.767 120.5 171.967C120.333 172.133 120.267 171.967 119.2 168.333C116.467 159 111.933 140.633 107.5 121C106.3 115.6 104.767 108.8 104.1 105.9L102.867 100.667H86.6C71.2334 100.667 70.3 100.7 70.4667 101.233Z" fill="url(#paint1_linear)" style="mix-blend-mode:lighten"/>
</g>
<defs>
<linearGradient id="paint0_linear" x1="149.823" y1="299.467" x2="149.823" y2="0.0786438" gradientUnits="userSpaceOnUse">
<stop offset="0.166667" stop-color="#BC54F5" stop-opacity="0"/>
<stop offset="0.989583" stop-color="#BC54F5"/>
</linearGradient>
<linearGradient id="paint1_linear" x1="149.854" y1="210" x2="149.854" y2="100.667" gradientUnits="userSpaceOnUse">
<stop offset="0.166667" stop-color="#BC54F5" stop-opacity="0"/>
<stop offset="0.989583" stop-color="#BC54F5"/>
</linearGradient>
</defs>
</svg>
